<?xml version="1.0" standalone="no" ?>
<!DOCTYPE svg PUBLIC "-//W3C//DTD SVG 20010904//EN" "http://www.w3.org/TR/2001/REC-SVG-20010904/DTD/svg10.dtd">
<svg version="1.0" xmlns="http://www.w3.org/2000/svg" width="310.000000pt" height="310.000000pt" viewBox="0 0 310.000000 310.000000" preserveAspectRatio="xMidYMid meet">
    <metadata></metadata>
    <g transform="translate(0.000000,310.000000) scale(0.100000,-0.100000)" fill="#000000" stroke="none">
    <path d="M2430 3083 c-104 -68 -230 -257 -300 -448 -32 -86 -30 -85 -135 -74 -154 17 -456 -17 -680 -77 -141 -37 -133 -38 -170 31 -105 201 -274 398 -389 455 -96 48 -136 37 -209 -57 -184 -241 -327 -557 -394 -870 -25 -120 -27 -144 -27 -378 0 -234 2 -258 27 -377 47 -223 106 -368 214 -533 161 -244 398 -446 688 -585 274 -132 606 -200 777 -160 171 40 223 56 294 89 295 139 584 463 724 816 144 360 160 674 59 1130 -99 450 -256 910 -346 1014 -29 35 -40 41 -71 40 -20 0 -48 -7 -62 -16z m230 -1578 c9 -11 7 -31 -9 -96 -39 -154 -114 -253 -214 -280 -50 -13 -156 -6 -212 15 -22 8 -52 17 -67 20 -60 13 -73 58 -37 127 53 104 185 187 339 213 116 19 185 20 200 1z m-1538 -120 c77 -19 130 -47 185 -98 66 -61 91 -121 61 -147 -31 -26 -182 -111 -223 -125 -158 -53 -310 29 -413 224 -54 100 -52 120 8 137 114 33 268 37 382 9z m844 -470 c9 -23 -112 -155 -142 -155 -34 0 -174 105 -174 130 0 11 1 21 3 21 3 2 207 15 265 17 30 1 44 -2 48 -13z"/>
    </g>
</svg>